<svg width="14" height="16" viewBox="0 0 14 16" fill="none" xmlns="http://www.w3.org/2000/svg">
<path fill-rule="evenodd" clip-rule="evenodd" d="M7 0C3.13 0 0 3.13 0 7c0 3.09 2 5.71 4.78 6.64.35.06.48-.15.48-.34 0-.17-.01-.62-.01-1.12-1.94.42-2.35-.94-2.35-.94-.32-.81-.78-1.03-.78-1.03-.64-.44.05-.43.05-.43.7.05 1.07.72 1.07.72.63 1.08 1.64.77 2.04.59.06-.46.24-.77.44-.95-1.55-.18-3.18-.78-3.18-3.46 0-.77.27-1.39.72-1.88-.07-.17-.31-.85.07-1.77 0 0 .59-.18 1.93.72.56-.16 1.16-.24 1.76-.24.6 0 1.2.08 1.76.24 1.34-.9 1.93-.72 1.93-.72.38.92.14 1.6.07 1.77.45.49.72 1.11.72 1.88 0 2.69-1.64 3.27-3.2 3.45.25.22.48.65.48 1.31 0 .95-.01 1.71-.01 1.94 0 .19.13.41.49.34C12 12.71 14 10.09 14 7c0-3.87-3.13-7-7-7z" fill="currentColor"/>
</svg>
