<svg width="18" height="16" viewBox="0 0 18 16" fill="none" xmlns="http://www.w3.org/2000/svg">
<g clip-path="url(#clip0_701_14)">
<path d="M4.99995 0C4.44683 0 3.99995 0.446875 3.99995 1C3.99995 1.55313 4.44683 2 4.99995 2H6.58433L0.293701 8.29375C-0.0969238 8.68437 -0.0969238 9.31875 0.293701 9.70938C0.684326 10.1 1.3187 10.1 1.70933 9.70938L7.99995 3.41563V5C7.99995 5.55313 8.44683 6 8.99995 6C9.55308 6 9.99995 5.55313 9.99995 5V1C9.99995 0.446875 9.55308 0 8.99995 0H4.99995ZM18 2.5C18 2.10218 17.8419 1.72064 17.5606 1.43934C17.2793 1.15804 16.8978 1 16.5 1C16.1021 1 15.7206 1.15804 15.4393 1.43934C15.158 1.72064 15 2.10218 15 2.5C15 2.89782 15.158 3.27936 15.4393 3.56066C15.7206 3.84196 16.1021 4 16.5 4C16.8978 4 17.2793 3.84196 17.5606 3.56066C17.8419 3.27936 18 2.89782 18 2.5ZM14 6.5C14 6.30302 13.9612 6.10796 13.8858 5.92597C13.8104 5.74399 13.6999 5.57863 13.5606 5.43934C13.4213 5.30005 13.256 5.18956 13.074 5.11418C12.892 5.0388 12.6969 5 12.5 5C12.303 5 12.1079 5.0388 11.9259 5.11418C11.7439 5.18956 11.5786 5.30005 11.4393 5.43934C11.3 5.57863 11.1895 5.74399 11.1141 5.92597C11.0387 6.10796 11 6.30302 11 6.5C11 6.69698 11.0387 6.89204 11.1141 7.07403C11.1895 7.25601 11.3 7.42137 11.4393 7.56066C11.5786 7.69995 11.7439 7.81044 11.9259 7.88582C12.1079 7.9612 12.303 8 12.5 8C12.6969 8 12.892 7.9612 13.074 7.88582C13.256 7.81044 13.4213 7.69995 13.5606 7.56066C13.6999 7.42137 13.8104 7.25601 13.8858 7.07403C13.9612 6.89204 14 6.69698 14 6.5ZM12.5 12C12.8978 12 13.2793 11.842 13.5606 11.5607C13.8419 11.2794 14 10.8978 14 10.5C14 10.1022 13.8419 9.72064 13.5606 9.43934C13.2793 9.15804 12.8978 9 12.5 9C12.1021 9 11.7206 9.15804 11.4393 9.43934C11.158 9.72064 11 10.1022 11 10.5C11 10.8978 11.158 11.2794 11.4393 11.5607C11.7206 11.842 12.1021 12 12.5 12ZM14 14.5C14 14.303 13.9612 14.108 13.8858 13.926C13.8104 13.744 13.6999 13.5786 13.5606 13.4393C13.4213 13.3001 13.256 13.1896 13.074 13.1142C12.892 13.0388 12.6969 13 12.5 13C12.303 13 12.1079 13.0388 11.9259 13.1142C11.7439 13.1896 11.5786 13.3001 11.4393 13.4393C11.3 13.5786 11.1895 13.744 11.1141 13.926C11.0387 14.108 11 14.303 11 14.5C11 14.697 11.0387 14.892 11.1141 15.074C11.1895 15.256 11.3 15.4214 11.4393 15.5607C11.5786 15.6999 11.7439 15.8104 11.9259 15.8858C12.1079 15.9612 12.303 16 12.5 16C12.6969 16 12.892 15.9612 13.074 15.8858C13.256 15.8104 13.4213 15.6999 13.5606 15.5607C13.6999 15.4214 13.8104 15.256 13.8858 15.074C13.9612 14.892 14 14.697 14 14.5ZM18 14.5C18 14.1022 17.8419 13.7206 17.5606 13.4393C17.2793 13.158 16.8978 13 16.5 13C16.1021 13 15.7206 13.158 15.4393 13.4393C15.158 13.7206 15 14.1022 15 14.5C15 14.8978 15.158 15.2794 15.4393 15.5607C15.7206 15.842 16.1021 16 16.5 16C16.8978 16 17.2793 15.842 17.5606 15.5607C17.8419 15.2794 18 14.8978 18 14.5ZM8.49995 12C8.89778 12 9.27931 11.842 9.56061 11.5607C9.84192 11.2794 9.99995 10.8978 9.99995 10.5C9.99995 10.1022 9.84192 9.72064 9.56061 9.43934C9.27931 9.15804 8.89778 9 8.49995 9C8.10213 9 7.7206 9.15804 7.43929 9.43934C7.15799 9.72064 6.99995 10.1022 6.99995 10.5C6.99995 10.8978 7.15799 11.2794 7.43929 11.5607C7.7206 11.842 8.10213 12 8.49995 12ZM9.99995 14.5C9.99995 14.1022 9.84192 13.7206 9.56061 13.4393C9.27931 13.158 8.89778 13 8.49995 13C8.10213 13 7.7206 13.158 7.43929 13.4393C7.15799 13.7206 6.99995 14.1022 6.99995 14.5C6.99995 14.8978 7.15799 15.2794 7.43929 15.5607C7.7206 15.842 8.10213 16 8.49995 16C8.89778 16 9.27931 15.842 9.56061 15.5607C9.84192 15.2794 9.99995 14.8978 9.99995 14.5ZM4.49995 16C4.89778 16 5.27931 15.842 5.56061 15.5607C5.84192 15.2794 5.99995 14.8978 5.99995 14.5C5.99995 14.1022 5.84192 13.7206 5.56061 13.4393C5.27931 13.158 4.89778 13 4.49995 13C4.10213 13 3.7206 13.158 3.43929 13.4393C3.15799 13.7206 2.99995 14.1022 2.99995 14.5C2.99995 14.8978 3.15799 15.2794 3.43929 15.5607C3.7206 15.842 4.10213 16 4.49995 16ZM18 10.5C18 10.1022 17.8419 9.72064 17.5606 9.43934C17.2793 9.15804 16.8978 9 16.5 9C16.1021 9 15.7206 9.15804 15.4393 9.43934C15.158 9.72064 15 10.1022 15 10.5C15 10.8978 15.158 11.2794 15.4393 11.5607C15.7206 11.842 16.1021 12 16.5 12C16.8978 12 17.2793 11.842 17.5606 11.5607C17.8419 11.2794 18 10.8978 18 10.5ZM16.5 8C16.8978 8 17.2793 7.84196 17.5606 7.56066C17.8419 7.27936 18 6.89782 18 6.5C18 6.10218 17.8419 5.72064 17.5606 5.43934C17.2793 5.15804 16.8978 5 16.5 5C16.1021 5 15.7206 5.15804 15.4393 5.43934C15.158 5.72064 15 6.10218 15 6.5C15 6.89782 15.158 7.27936 15.4393 7.56066C15.7206 7.84196 16.1021 8 16.5 8Z" fill="#43403C"/>
</g>
<defs>
<clipPath id="clip0_701_14">
<rect width="18" height="16" fill="white"/>
</clipPath>
</defs>
</svg>
