<svg width="20" height="16" viewBox="0 0 20 16" fill="none" xmlns="http://www.w3.org/2000/svg">
<g clip-path="url(#clip0_701_12)">
<path d="M5.75 1.5H10.25C10.3875 1.5 10.5 1.6125 10.5 1.75V3H5.5V1.75C5.5 1.6125 5.6125 1.5 5.75 1.5ZM4 1.75V3H2C0.896875 3 0 3.89688 0 5V8H6H11H11.2563C12.2656 6.77813 13.7906 6 15.5 6C15.6688 6 15.8344 6.00625 16 6.02187V5C16 3.89688 15.1031 3 14 3H12V1.75C12 0.784375 11.2156 0 10.25 0H5.75C4.78438 0 4 0.784375 4 1.75ZM10 11H7C6.44687 11 6 10.5531 6 10V9H0V13C0 14.1031 0.896875 15 2 15H11.2563C10.4719 14.05 10 12.8281 10 11.5C10 11.3312 10.0063 11.1656 10.0219 11H10ZM20 11.5C20 10.3065 19.5259 9.16193 18.682 8.31802C17.8381 7.47411 16.6935 7 15.5 7C14.3065 7 13.1619 7.47411 12.318 8.31802C11.4741 9.16193 11 10.3065 11 11.5C11 12.6935 11.4741 13.8381 12.318 14.682C13.1619 15.5259 14.3065 16 15.5 16C16.6935 16 17.8381 15.5259 18.682 14.682C19.5259 13.8381 20 12.6935 20 11.5ZM15.5 9C15.775 9 16 9.225 16 9.5V11H17C17.275 11 17.5 11.225 17.5 11.5C17.5 11.775 17.275 12 17 12H15.5C15.225 12 15 11.775 15 11.5V9.5C15 9.225 15.225 9 15.5 9Z" fill="#43403C"/>
</g>
<defs>
<clipPath id="clip0_701_12">
<rect width="20" height="16" fill="white"/>
</clipPath>
</defs>
</svg>
