<svg width="20" height="16" viewBox="0 0 20 16" fill="none" xmlns="http://www.w3.org/2000/svg">
<g clip-path="url(#clip0_701_16)">
<path d="M7 8C8.06087 8 9.07828 7.57857 9.82843 6.82843C10.5786 6.07828 11 5.06087 11 4C11 2.93913 10.5786 1.92172 9.82843 1.17157C9.07828 0.421427 8.06087 0 7 0C5.93913 0 4.92172 0.421427 4.17157 1.17157C3.42143 1.92172 3 2.93913 3 4C3 5.06087 3.42143 6.07828 4.17157 6.82843C4.92172 7.57857 5.93913 8 7 8ZM5.57188 9.5C2.49375 9.5 0 11.9937 0 15.0719C0 15.5844 0.415625 16 0.928125 16H13.0719C13.5844 16 14 15.5844 14 15.0719C14 15.0469 14 15.025 14 15C11.2375 15 9 12.7625 9 10C9 9.84063 9.00625 9.68438 9.02188 9.53125C8.82813 9.50938 8.62813 9.5 8.42813 9.5H5.57188ZM14 7.50313C14.3283 7.50313 14.6534 7.56779 14.9567 7.69343C15.26 7.81906 15.5356 8.00321 15.7678 8.23536C15.9999 8.4675 16.1841 8.7431 16.3097 9.04642C16.4353 9.34973 16.5 9.67482 16.5 10.0031C16.5 10.3314 16.4353 10.6565 16.3097 10.9598C16.1841 11.2631 15.9999 11.5387 15.7678 11.7709C15.5356 12.003 15.26 12.1872 14.9567 12.3128C14.6534 12.4385 14.3283 12.5031 14 12.5031C13.337 12.5031 12.7011 12.2397 12.2322 11.7709C11.7634 11.3021 11.5 10.6662 11.5 10.0031C11.5 9.34008 11.7634 8.7042 12.2322 8.23536C12.7011 7.76652 13.337 7.50313 14 7.50313ZM14 14.0031C14.8344 14.0031 15.6063 13.7469 16.2469 13.3125L18.7188 15.7844C19.0125 16.0781 19.4875 16.0781 19.7781 15.7844C20.0688 15.4906 20.0719 15.0156 19.7781 14.725L17.3062 12.2531C17.7437 11.6125 17.9969 10.8375 17.9969 10.0063C17.9969 7.79688 16.2062 6.00625 13.9969 6.00625C11.7875 6.00625 9.99687 7.79688 9.99687 10.0063C9.99687 12.2156 11.7875 14.0063 13.9969 14.0063L14 14.0031Z" fill="#43403C"/>
</g>
<defs>
<clipPath id="clip0_701_16">
<rect width="20" height="16" fill="white"/>
</clipPath>
</defs>
</svg>
