<svg width="20" height="16" viewBox="0 0 20 16" fill="none" xmlns="http://www.w3.org/2000/svg">
<g clip-path="url(#clip0_116_109)">
<path d="M3 0C1.89688 0 1 0.896875 1 2V7.7625C1.53125 7.2875 2.23125 7 3 7V2H17V7C17.7688 7 18.4688 7.2875 19 7.7625V2C19 0.896875 18.1031 0 17 0H3ZM5 10C5 9.46957 4.78929 8.96086 4.41421 8.58579C4.03914 8.21071 3.53043 8 3 8C2.46957 8 1.96086 8.21071 1.58579 8.58579C1.21071 8.96086 1 9.46957 1 10C1 10.5304 1.21071 11.0391 1.58579 11.4142C1.96086 11.7893 2.46957 12 3 12C3.53043 12 4.03914 11.7893 4.41421 11.4142C4.78929 11.0391 5 10.5304 5 10ZM0 15C0 15.5531 0.446875 16 1 16H5C5.55313 16 6 15.5531 6 15C6 13.8969 5.10312 13 4 13H2C0.896875 13 0 13.8969 0 15ZM12 10C12 9.46957 11.7893 8.96086 11.4142 8.58579C11.0391 8.21071 10.5304 8 10 8C9.46957 8 8.96086 8.21071 8.58579 8.58579C8.21071 8.96086 8 9.46957 8 10C8 10.5304 8.21071 11.0391 8.58579 11.4142C8.96086 11.7893 9.46957 12 10 12C10.5304 12 11.0391 11.7893 11.4142 11.4142C11.7893 11.0391 12 10.5304 12 10ZM7 15C7 15.5531 7.44687 16 8 16H12C12.5531 16 13 15.5531 13 15C13 13.8969 12.1031 13 11 13H9C7.89688 13 7 13.8969 7 15ZM17 12C17.5304 12 18.0391 11.7893 18.4142 11.4142C18.7893 11.0391 19 10.5304 19 10C19 9.46957 18.7893 8.96086 18.4142 8.58579C18.0391 8.21071 17.5304 8 17 8C16.4696 8 15.9609 8.21071 15.5858 8.58579C15.2107 8.96086 15 9.46957 15 10C15 10.5304 15.2107 11.0391 15.5858 11.4142C15.9609 11.7893 16.4696 12 17 12ZM16 13C14.8969 13 14 13.8969 14 15C14 15.5531 14.4469 16 15 16H19C19.5531 16 20 15.5531 20 15C20 13.8969 19.1031 13 18 13H16Z" fill="#43403C"/>
</g>
<defs>
<clipPath id="clip0_116_109">
<rect width="20" height="16" fill="white"/>
</clipPath>
</defs>
</svg>
