<svg width="15" height="16" viewBox="0 0 15 16" fill="none" xmlns="http://www.w3.org/2000/svg">
<g clip-path="url(#clip0_132_111)">
<path d="M6.02091 1.5H8.02787C8.16585 1.5 8.27875 1.6125 8.27875 1.75V3H5.77004V1.75C5.77004 1.6125 5.88293 1.5 6.02091 1.5ZM4.26481 1.75V3H4.01394C1.79686 3 0 4.79063 0 7V14C0 15.1031 0.9 16 2.00697 16V12.5V11C2.00697 9.89688 2.90697 9 4.01394 9H10.0348C11.1418 9 12.0418 9.89688 12.0418 11V12.5V16C13.1488 16 14.0488 15.1031 14.0488 14V7C14.0488 4.79063 12.2519 3 10.0348 3H9.78397V1.75C9.78397 0.784375 8.99686 0 8.02787 0H6.02091C5.05192 0 4.26481 0.784375 4.26481 1.75ZM11.0383 16V13H3.01045V16H11.0383ZM4.51568 5.5H9.5331C9.80906 5.5 10.0348 5.725 10.0348 6C10.0348 6.275 9.80906 6.5 9.5331 6.5H4.51568C4.23972 6.5 4.01394 6.275 4.01394 6C4.01394 5.725 4.23972 5.5 4.51568 5.5ZM11.0383 12V11C11.0383 10.4469 10.5899 10 10.0348 10H4.01394C3.45889 10 3.01045 10.4469 3.01045 11V12H11.0383Z" fill="#43403C"/>
</g>
<defs>
<clipPath id="clip0_132_111">
<rect width="14.0488" height="16" fill="white"/>
</clipPath>
</defs>
</svg>
